<svg width="20" height="20" viewBox="0 0 20 20" fill="none" xmlns="http://www.w3.org/2000/svg">
<path fill-rule="evenodd" clip-rule="evenodd" d="M0.339969 2.39114H4.45959L4.45414 2.32766V0.672255C4.45414 0.302759 4.88319 0 5.41042 0C5.93582 0 6.36669 0.304387 6.36669 0.672255V2.32766L6.36124 2.39114H13.377L13.3715 2.32766V0.672255C13.3715 0.302759 13.8006 0 14.326 0C14.8514 0 15.2822 0.304387 15.2822 0.672255V2.32766L15.2768 2.39114H19.66C19.8473 2.39114 20 2.52787 20 2.69553V5.86311C20 6.03076 19.8473 6.16749 19.66 6.16749H0.339969C0.152713 6.16587 0 6.02914 0 5.86148V2.6939C0 2.52625 0.152713 2.39114 0.339969 2.39114ZM0.0854468 6.86742H19.9164C19.9636 6.86742 20 6.9016 20 6.9423V19.9251C20 19.9658 19.9618 20 19.9164 20H0.0854468C0.0399964 20 0 19.9658 0 19.9251V6.94392C0 6.9016 0.0381783 6.86742 0.0854468 6.86742ZM17.6838 8.58794H15.1932C15.0423 8.58794 14.9205 8.69048 14.9205 8.81582V10.8896C14.9205 11.0149 15.0423 11.1174 15.1932 11.1174H17.6857C17.8366 11.1174 17.9602 11.0149 17.9602 10.8896V8.81582C17.9584 8.69048 17.8347 8.58794 17.6838 8.58794ZM2.22525 12.1966H4.71593C4.86683 12.1966 4.99046 12.2992 4.99046 12.4245V14.4982C4.99046 14.6236 4.86683 14.7261 4.71593 14.7261H2.3107C2.1598 14.7261 2.038 14.6236 2.038 14.4982V12.3496C2.038 12.2243 2.16162 12.1218 2.3107 12.1218L2.22525 12.1966ZM2.22525 15.8069H4.71593C4.86683 15.8069 4.99046 15.9095 4.99046 16.0348V18.1086C4.99046 18.2339 4.86683 18.3365 4.71593 18.3365H2.30888C2.15799 18.3365 2.03618 18.2339 2.03618 18.1086V16.0348C2.03618 15.9095 2.1598 15.8069 2.30888 15.8069H2.22525ZM2.22525 8.58794H4.71593C4.86683 8.58794 4.99046 8.69048 4.99046 8.81582V10.8896C4.99046 11.0149 4.86683 11.1174 4.71593 11.1174H2.30888C2.15799 11.1174 2.03618 11.0149 2.03618 10.8896V8.81582C2.03618 8.69048 2.1598 8.58794 2.30888 8.58794H2.22525ZM6.5485 8.58794H9.041C9.19189 8.58794 9.3137 8.69048 9.3137 8.81582V10.8896C9.3137 11.0149 9.19007 11.1174 9.041 11.1174H6.5485C6.3976 11.1174 6.27397 11.0149 6.27397 10.8896V8.81582C6.27397 8.69048 6.3976 8.58794 6.5485 8.58794ZM6.5485 12.1966H9.041C9.19189 12.1966 9.3137 12.2992 9.3137 12.4245V14.4982C9.3137 14.6236 9.19007 14.7261 9.041 14.7261H6.5485C6.3976 14.7261 6.27397 14.6236 6.27397 14.4982V12.3496C6.27397 12.2243 6.3976 12.1218 6.5485 12.1218V12.1966ZM6.5485 15.8069H9.041C9.19189 15.8069 9.3137 15.9095 9.3137 16.0348V18.1086C9.3137 18.2339 9.19007 18.3365 9.041 18.3365H6.5485C6.3976 18.3365 6.27397 18.2339 6.27397 18.1086V16.0348C6.27397 15.9095 6.3976 15.8069 6.5485 15.8069ZM10.8699 8.58794H13.3624C13.5133 8.58794 13.6369 8.69048 13.6369 8.81582V10.8896C13.6369 11.0149 13.5133 11.1174 13.3624 11.1174H10.8699C10.719 11.1174 10.5954 11.0149 10.5954 10.8896V8.81582C10.5972 8.69048 10.719 8.58794 10.8699 8.58794ZM10.8699 12.1966H13.3624C13.5133 12.1966 13.6369 12.2992 13.6369 12.4245V14.4982C13.6369 14.6236 13.5133 14.7261 13.3624 14.7261H10.8699C10.719 14.7261 10.5954 14.6236 10.5954 14.4982V12.3496C10.5954 12.2243 10.719 12.1218 10.8699 12.1218V12.1966ZM17.6838 12.1966H15.1932C15.0423 12.1966 14.9205 12.2992 14.9205 12.4245V14.4982C14.9205 14.6236 15.0423 14.7261 15.1932 14.7261H17.6857C17.8366 14.7261 17.9602 14.6236 17.9602 14.4982V12.348C17.9602 12.2227 17.8366 12.1201 17.6857 12.1201L17.6838 12.1966ZM17.6838 15.8069H15.1932C15.0423 15.8069 14.9205 15.9095 14.9205 16.0348V18.1086C14.9205 18.2339 15.0423 18.3365 15.1932 18.3365H17.6857C17.8366 18.3365 17.9602 18.2339 17.9602 18.1086V15.9583C17.9602 15.833 17.8366 15.7304 17.6857 15.7304L17.6838 15.8069ZM10.8699 15.8069H13.3624C13.5133 15.8069 13.6369 15.9095 13.6369 16.0348V18.1086C13.6369 18.2339 13.5133 18.3365 13.3624 18.3365H10.8699C10.719 18.3365 10.5954 18.2339 10.5954 18.1086V16.0348C10.5972 15.9095 10.719 15.8069 10.8699 15.8069ZM1.27443 7.76593H18.8946C18.9892 7.76593 19.0655 7.83755 19.0655 7.91894V18.9501C19.0655 19.0315 18.9855 19.1031 18.8946 19.1031H1.10535C1.01445 19.1031 0.93446 19.0347 0.93446 18.9501V8.07032C0.93446 7.90266 1.08717 7.76593 1.27443 7.76593ZM14.326 4.78555C14.8514 4.78555 15.2822 4.48116 15.2822 4.11329V2.45951L15.2768 2.39277H13.377L13.3715 2.45951V4.11329C13.3715 4.48279 13.8006 4.78555 14.326 4.78555ZM5.41042 4.78555C5.93582 4.78555 6.36669 4.48116 6.36669 4.11329V2.45951L6.36124 2.39277H4.45959L4.45414 2.45951V4.11329C4.45414 4.48279 4.88319 4.78555 5.41042 4.78555Z" fill="white"/>
</svg>
