<svg width="20" height="20" viewBox="0 0 20 20" fill="none" xmlns="http://www.w3.org/2000/svg">
<g clip-path="url(#clip0_32_2)">
<path d="M4.23828 15.6367L7.25391 11.2305L10.4453 14.3086C10.9805 14.7617 11.5117 14.4297 11.6523 14.1914L16.9492 6.60156L17.1406 9.14063C17.1719 9.55859 17.5234 9.87891 17.9336 9.87891C18.4023 9.87891 18.7617 9.46094 18.7305 9.01953L18.3945 4.55469C18.3594 4.11719 17.9805 3.78516 17.5391 3.82031L13.0742 4.15625C12.6367 4.1875 12.3047 4.57031 12.3398 5.01172C12.3711 5.44922 12.7539 5.77734 13.1953 5.74609L15.7344 5.55469L10.8828 12.5078L7.68359 9.42578C7.48828 9.20313 6.90234 9.00391 6.47266 9.55078L3.62109 13.7148V15.9766C3.85937 15.9648 4.09375 15.8477 4.23828 15.6367Z" fill="white"/>
<path d="M18.7734 17.9766H2.02344V1.22656C2.02344 0.785156 1.66797 0.429688 1.22656 0.429688C0.785156 0.429688 0.429688 0.785156 0.429688 1.22656V18.7734C0.429688 19.2148 0.785156 19.5703 1.22656 19.5703H18.7734C19.2148 19.5703 19.5703 19.2148 19.5703 18.7734C19.5703 18.332 19.2148 17.9766 18.7734 17.9766Z" fill="white"/>
</g>
<defs>
<clipPath id="clip0_32_2">
<rect width="20" height="20" fill="white"/>
</clipPath>
</defs>
</svg>
