<svg width="191" height="52" viewBox="0 0 191 52" fill="none" xmlns="http://www.w3.org/2000/svg">
<path d="M165.269 28.9671C165.269 29.9729 165.201 30.8782 165.066 31.6828H144.591C144.76 33.6944 145.468 35.2702 146.715 36.4101C147.962 37.55 149.495 38.12 151.315 38.12C153.944 38.12 155.815 36.9968 156.927 34.7505H164.561C163.752 37.4327 162.202 39.6454 159.91 41.3888C157.618 43.0987 154.804 43.9536 151.467 43.9536C148.771 43.9536 146.344 43.3669 144.187 42.1935C142.064 40.9865 140.395 39.2934 139.182 37.1142C138.002 34.9349 137.412 32.4204 137.412 29.5706C137.412 26.6873 138.002 24.1561 139.182 21.9768C140.361 19.7976 142.013 18.1212 144.136 16.9478C146.26 15.7744 148.703 15.1876 151.467 15.1876C154.13 15.1876 156.506 15.7576 158.595 16.8975C160.719 18.0374 162.353 19.6635 163.499 21.7756C164.679 23.8543 165.269 26.2515 165.269 28.9671ZM157.938 26.9555C157.904 25.1451 157.247 23.7034 155.966 22.6306C154.686 21.5242 153.118 20.971 151.265 20.971C149.512 20.971 148.029 21.5074 146.816 22.5803C145.636 23.6196 144.911 25.078 144.642 26.9555H157.938Z" fill="white"/>
<path d="M125.871 19.9652C126.781 18.49 127.96 17.3333 129.41 16.4952C130.893 15.657 132.578 15.2379 134.465 15.2379V22.6306H132.595C130.37 22.6306 128.685 23.1502 127.539 24.1896C126.427 25.2289 125.871 27.0394 125.871 29.6209V43.501H118.793V15.6402H125.871V19.9652Z" fill="white"/>
<path d="M113.627 28.9671C113.627 29.9729 113.559 30.8782 113.424 31.6828H92.9493C93.1178 33.6944 93.8256 35.2702 95.0726 36.4101C96.3197 37.55 97.8532 38.12 99.6732 38.12C102.302 38.12 104.173 36.9968 105.285 34.7505H112.919C112.11 37.4327 110.56 39.6454 108.268 41.3888C105.976 43.0987 103.162 43.9536 99.8249 43.9536C97.1286 43.9536 94.7019 43.3669 92.5449 42.1935C90.4215 40.9865 88.7532 39.2934 87.5398 37.1142C86.3602 34.9349 85.7704 32.4204 85.7704 29.5706C85.7704 26.6873 86.3602 24.1561 87.5398 21.9768C88.7195 19.7976 90.371 18.1212 92.4943 16.9478C94.6176 15.7744 97.0612 15.1876 99.8249 15.1876C102.488 15.1876 104.864 15.7576 106.953 16.8975C109.077 18.0374 110.711 19.6635 111.857 21.7756C113.037 23.8543 113.627 26.2515 113.627 28.9671ZM106.296 26.9555C106.262 25.1451 105.605 23.7034 104.324 22.6306C103.044 21.5242 101.476 20.971 99.6227 20.971C97.8701 20.971 96.3871 21.5074 95.1738 22.5803C93.9941 23.6196 93.2695 25.078 92.9999 26.9555H106.296Z" fill="white"/>
<path d="M69.9397 15.2379C72.063 15.2379 73.9504 15.7073 75.6019 16.646C77.2534 17.5513 78.5342 18.9091 79.4442 20.7196C80.3879 22.4965 80.8597 24.6422 80.8597 27.1567V43.501H73.7819V28.1122C73.7819 25.8994 73.2258 24.2063 72.1136 23.0329C71.0014 21.8259 69.4847 21.2225 67.5636 21.2225C65.6087 21.2225 64.0583 21.8259 62.9124 23.0329C61.8002 24.2063 61.2441 25.8994 61.2441 28.1122V43.501H54.1662V6.28627H61.2441V19.1103C62.1541 17.9033 63.3674 16.9646 64.8841 16.294C66.4008 15.59 68.086 15.2379 69.9397 15.2379Z" fill="white"/>
<path d="M49.5447 8.39846L39.6863 43.501H31.3446L24.7218 18.5068L17.7957 43.501L9.5045 43.5513L0 8.39846H7.58338L13.8017 35.6557L20.9807 8.39846H28.8674L35.6419 35.5049L41.9108 8.39846H49.5447Z" fill="white"/>
<path d="M181.748 44.4565C183.842 44.4565 185.54 46.1451 185.54 48.2282C185.54 50.3113 183.842 52 181.748 52C179.654 52 177.957 50.3113 177.957 48.2282C177.957 46.1451 179.654 44.4565 181.748 44.4565ZM179.524 0C180.872 5.31902e-06 181.917 0.217869 182.658 0.653674C182.591 1.55888 182.524 2.96702 182.456 4.878C184.883 5.17974 186.787 6.03472 188.169 7.44285C189.517 8.85095 190.191 10.5944 190.191 12.673C190.191 14.7516 189.652 16.4784 188.573 17.853C187.495 19.2276 186.197 20.3341 184.681 21.1722C183.164 21.9768 181.647 22.7478 180.13 23.4854C178.58 24.2229 177.266 25.145 176.187 26.2513C175.109 27.3577 174.569 28.6822 174.569 30.2245C174.569 31.7666 175.058 32.9903 176.036 33.8955C177.013 34.7672 178.479 35.2031 180.434 35.2031C182.355 35.2031 184.057 34.5996 185.54 33.3926C185.237 32.8227 185.085 32.0851 185.085 31.1799C185.085 30.2412 185.371 29.4532 185.944 28.8162C186.517 28.1792 187.326 27.8607 188.371 27.8607C190.124 27.8607 191 28.833 191 30.7774C191 32.722 190.309 34.3145 188.927 35.555C187.512 36.762 185.742 37.5836 183.619 38.0194C183.686 39.0587 183.821 40.4333 184.023 42.1431C183.518 42.2437 182.861 42.2941 182.052 42.2941C181.209 42.2941 180.333 42.076 179.423 41.6402C179.591 41.0367 179.676 39.9639 179.676 38.4217C176.878 38.3211 174.62 37.4493 172.901 35.8065C171.149 34.1301 170.272 32.0013 170.272 29.4198C170.272 27.8105 170.66 26.3856 171.435 25.1451C172.21 23.8711 173.171 22.8653 174.317 22.1277C175.462 21.3901 176.71 20.6526 178.058 19.915C179.406 19.1439 180.653 18.4733 181.799 17.9034C182.945 17.2999 183.905 16.5455 184.681 15.6403C185.456 14.7015 185.843 13.5783 185.843 12.2708C185.843 10.9632 185.422 9.87359 184.58 9.00189C183.703 8.1302 182.406 7.6943 180.687 7.6943C178.968 7.69431 177.518 8.23084 176.339 9.30368C176.743 9.84011 176.946 10.6113 176.946 11.6171C176.946 12.6228 176.659 13.4443 176.086 14.0813C175.513 14.7182 174.704 15.0367 173.659 15.0367C171.907 15.0367 171.03 14.0477 171.03 12.0696C171.03 10.058 171.772 8.4487 173.255 7.24174C174.704 6.00127 176.474 5.21326 178.563 4.878C178.361 2.86643 178.193 1.29067 178.058 0.150772C178.698 0.0502042 179.187 0 179.524 0Z" fill="#F1C40F"/>
</svg>
